# xmcd CD database file
#
# Track frame offsets:
#	150
#	11673
#	29346
#	42669
#	63192
#	78765
#	89388
#	103536
#	120834
#	133707
#
# Disc length: 2020 seconds
#
# Revision: 0
# Processed by: cddbd v1.5.2PL0 Copyright (c) Steve Scherf et al.
# Submitted via: CDex 1.70beta2
#
DISCID=7407e20a
DTITLE=Twitty, Conway - USA - Number 1 Hits
DYEAR=1900
DGENRE=Country
TTITLE0=Don't Call Him A Cowboy
TTITLE1=We Did But Now You Don't
TTITLE2=I Don't Know A Thing About Love (The Moon Song)
TTITLE3=Falling For You For Years
TTITLE4=The Rose
TTITLE5=Desperado Love
TTITLE6=Lost In the Feeling
TTITLE7=Somebody's Needin' Somebody
TTITLE8=Slow Hand
TTITLE9=The Clown
EXTD=
EXTT0=
EXTT1=
EXTT2=
EXTT3=
EXTT4=
EXTT5=
EXTT6=
EXTT7=
EXTT8=
EXTT9=
PLAYORDER=
